# xmcd
#
# Track frame offsets:
#	182
#	17342
#	29875
#	42130
#	55092
#	71555
#	82875
#	98070
#	109182
#	124375
#	141240
#	154642
#	167390
#	184087
#	198655
#	210407
#	224707
#	243997
#	261557
#	275585
#
# Disc length: 3890 seconds
#
# Revision: 0
# Processed by: cddbd v1.5.2PL0 Copyright (c) Steve Scherf et al.
# Submitted via: audiograbber 1.83.01
#
DISCID=260f3014
DTITLE=Various Artist - Thoughts Of Yesterday
DYEAR=1900
DGENRE=Country
TTITLE0=Daniel O'Donnell - I Need You
TTITLE1=Charley Pride - Do What You Do Do Well
TTITLE2=Mary Duff - Crazy
TTITLE3=Sonny Curtis - More Than I Can Say
TTITLE4=Foster and Allen - Maggie
TTITLE5=Dominic Kerwan - Before The Next Teardrop Falls
TTITLE6=Gloria - Pal Of My Cradle Days
TTITLE7=Billie Jo Spears - Seven Lonely Days
TTITLE8=Philomena Begley - Sentimental Old You
TTITLE9=Frank McCaffery - More Than Yesterday
TTITLE10=Daniel O'Donnell - Roses Are Red
TTITLE11=John Morgan - China Doll
TTITLE12=Dominic Kerwan - Say You'll Stay Until Tomorrow
TTITLE13=Foster and Allen - After All These Years
TTITLE14=Charley Pride - Ramblin' Rose
TTITLE15=Dana - Little Things Mean A Lot
TTITLE16=Frank McCaffery - It's Our Anniversary
TTITLE17=Mary Duff - Yellow Roses
TTITLE18=Ray Lynam - He Stopped Loving Her Today
TTITLE19=Philomena Begley - Old Flames
EXTD=
EXTT0=
EXTT1=
EXTT2=
EXTT3=
EXTT4=
EXTT5=
EXTT6=
EXTT7=
EXTT8=
EXTT9=
EXTT10=
EXTT11=
EXTT12=
EXTT13=
EXTT14=
EXTT15=
EXTT16=
EXTT17=
EXTT18=
EXTT19=
PLAYORDER=
